<svg width="95" height="86" viewBox="0 0 95 86" fill="none" xmlns="http://www.w3.org/2000/svg">
<mask id="mask0_18357_29838" style="mask-type:luminance" maskUnits="userSpaceOnUse" x="0" y="0" width="95" height="86">
<path fill-rule="evenodd" clip-rule="evenodd" d="M0 0H94.2298V86H0V0Z" fill="white"/>
</mask>
<g mask="url(#mask0_18357_29838)">
<path fill-rule="evenodd" clip-rule="evenodd" d="M20.5368 37.6971C20.3828 36.9419 19.1045 36.8525 18.4904 36.7958C17.8565 36.7162 17.2136 36.7526 16.5927 36.9033C15.7787 37.1279 14.9852 37.4185 14.1853 37.6904C13.7783 37.8288 13.3697 37.9631 12.956 38.0811C12.4005 38.2397 11.8934 38.5359 11.3206 38.6396C11.1509 38.6702 10.9785 38.6847 10.8076 38.709C10.5891 38.74 10.092 38.7719 9.92368 38.9223C9.81868 39.0162 9.85368 39.1632 9.85348 39.2854C9.84794 39.4622 9.83067 39.6384 9.80179 39.8129C9.68438 40.6626 9.52668 41.5091 9.3818 42.3546C9.14169 43.7806 8.85599 45.2029 8.64783 46.6334C8.5412 47.3654 8.46266 48.1008 8.3888 48.8367C8.37028 49.0204 8.35034 49.2041 8.31615 49.3864C8.23669 49.7889 8.17969 50.1956 8.14543 50.6046C8.12776 50.8509 8.09747 51.0962 8.05467 51.3394C7.94764 51.933 7.89677 52.5345 7.84 53.1357C7.8107 53.4445 7.78099 53.7536 7.7411 54.0614C7.71343 54.2753 7.61901 54.5513 7.75372 54.7456C7.90348 54.9622 8.0268 55.1959 8.18389 55.4077C8.4342 55.7214 8.75495 55.9713 9.11991 56.1369C9.78714 56.4226 10.8192 56.3783 11.1574 55.6339C11.2801 55.3302 11.3622 55.0115 11.4016 54.6862C11.522 53.9485 11.6228 53.1757 11.74 52.4253C11.8025 52.0251 11.8702 51.6256 11.9504 51.2284C11.9888 51.0378 12.0302 50.8479 12.0745 50.6584C12.1382 50.3894 12.2353 49.7981 12.5303 49.7085C12.8789 49.6029 13.2382 49.696 13.6088 49.5546C13.9602 49.4209 14.2872 49.2263 14.6466 49.1126C14.907 49.0498 15.1617 48.9655 15.4082 48.8604C15.6605 48.7046 15.89 48.5144 16.0901 48.2951C16.1253 48.2576 16.1542 48.2147 16.1757 48.168C16.3724 47.8141 16.5272 47.4384 16.637 47.0486C16.6822 46.8708 16.8812 46.3795 16.8124 46.2225C16.7416 46.0625 16.5412 45.9835 16.4173 45.8732C15.7879 45.3138 14.333 45.4532 13.6245 45.7481C13.343 45.8653 13.0307 46.1082 12.8905 45.7348C12.7845 45.4525 12.9074 45.0827 12.9228 44.7892C12.932 44.3583 12.9672 43.9285 13.0282 43.502C13.0991 43.0966 13.2191 42.703 13.3221 42.3054C13.4167 41.9396 13.4112 41.4726 13.6782 41.2217C13.7453 41.2381 13.8144 41.245 13.8835 41.2421C13.9423 41.2293 14.0022 41.2214 14.0624 41.2187C15.92 41.2668 17.8024 40.6396 19.4484 39.7939C19.7821 39.6226 20.173 39.4177 20.3641 39.0772C20.439 38.9167 20.4672 38.7382 20.4455 38.5622C20.4479 38.2799 20.5903 38.0068 20.5419 37.7229C20.5401 37.7138 20.5385 37.7052 20.5368 37.6971Z" fill="black"/>
<path fill-rule="evenodd" clip-rule="evenodd" d="M45.2238 45.7334C45.2728 45.2378 45.322 44.7422 45.3713 44.2466C45.3944 43.8813 45.4567 43.5197 45.5571 43.1678C45.6308 42.8808 45.7757 42.6172 45.9783 42.4016C46.0989 42.32 46.2268 42.2498 46.3603 42.1919C46.4948 42.1123 46.6179 42.0258 46.7566 41.9543C46.8954 41.8829 46.9713 41.7804 47.1038 41.7059C47.1748 41.6651 47.2489 41.6308 47.3229 41.5967C47.3724 41.574 47.4194 41.6059 47.4324 41.6661C47.4345 41.6761 47.4365 41.6865 47.4389 41.6961C47.4939 41.9577 47.5101 42.2259 47.4872 42.4922C47.4737 42.7371 47.4499 42.9837 47.4306 43.2293C47.4082 43.5158 47.3857 43.8023 47.363 44.0886C47.3606 44.1192 47.3561 44.1498 47.3518 44.1803C47.3016 44.536 47.2501 44.8916 47.2009 45.2474C47.1852 45.3593 47.1773 45.4719 47.1577 45.5832C47.1306 45.7453 47.1188 45.9097 47.1225 46.0741C47.1268 46.3652 47.1319 46.6561 47.1345 46.9471C47.1621 47.2652 47.2771 47.5694 47.4666 47.8259C47.9021 48.5087 48.4883 48.736 49.1523 48.0765C49.2971 47.9336 49.5619 47.88 49.5837 47.6583C49.7355 46.108 49.9617 44.4826 50.2322 42.9419C50.3926 42.2046 50.4674 41.4511 50.455 40.6965C50.4527 40.2247 50.3345 39.7608 50.1107 39.3458C49.8838 39.0265 49.5576 38.792 49.1832 38.6792C48.4399 38.3834 47.6483 38.037 46.8323 38.146C46.5739 38.1699 46.3219 38.2403 46.0884 38.3538C45.8258 38.526 45.5839 38.7282 45.3677 38.9562C45.1056 39.1654 44.8689 39.4047 44.6624 39.6692L44.502 39.8937C44.4662 39.9466 44.3995 39.9688 44.3393 39.9478C44.0015 39.8696 43.6712 39.7551 43.3391 39.6571C42.4599 39.4308 41.5258 39.6451 40.832 40.2324C40.7941 40.2668 40.7549 40.2997 40.7154 40.3322C40.6995 40.3452 40.6818 40.3556 40.6647 40.3671C40.6282 40.3875 40.583 40.3843 40.5498 40.3589C40.4286 40.2654 40.3028 40.1782 40.1729 40.0974C39.959 39.95 39.5828 39.6484 39.3087 39.6808C39.2687 39.6904 39.2277 39.6951 39.1866 39.6949C39.1148 39.6859 39.0645 39.6206 39.0002 39.5875C38.852 39.5345 38.6878 39.6037 38.6219 39.7472C38.5178 39.9458 38.5664 40.2011 38.517 40.4171C38.2433 41.6138 37.9268 42.7894 37.7329 44.0096C37.5004 45.3056 37.3351 46.6129 37.2376 47.9261C37.221 48.2233 37.2201 48.5215 37.213 48.8193C37.2026 49.2574 37.8322 50.0055 38.2304 50.1553C38.6362 50.3076 39.1526 50.092 39.5502 49.9941C39.5998 49.9798 39.6417 49.9463 39.6667 49.901C39.7573 49.7518 39.8207 49.5877 39.8538 49.4162C39.8874 49.2037 39.932 48.9931 39.9875 48.7852C40.1168 48.3381 40.1762 47.8736 40.1635 47.4082C40.1766 46.7177 40.3316 46.0627 40.4126 45.3817C40.4659 44.9327 40.5783 44.4946 40.6655 44.0519C40.6848 43.9499 40.7433 43.8595 40.8283 43.8004C41.0178 43.6604 41.2009 43.5118 41.3883 43.3689C41.4459 43.3263 41.5058 43.287 41.5676 43.2509C41.7428 43.1454 41.9278 43.0533 42.0928 42.9339C42.3339 42.7616 42.5873 42.6074 42.851 42.4724C42.8632 42.4661 42.8866 42.4779 42.9029 42.4853C42.9101 42.4917 42.9138 42.5013 42.9128 42.511C42.9034 42.5823 42.8898 42.653 42.8721 42.7227C42.75 43.137 42.6741 43.5614 42.5919 43.9847C42.5655 44.1259 42.5297 44.2653 42.4849 44.4018C42.3178 44.8992 42.2395 45.4179 42.1144 45.9253C42.0602 46.1443 42.0179 46.3666 41.9817 46.5893C41.9433 46.77 41.9244 46.9543 41.9253 47.139C41.9252 47.608 42.0834 48.0633 42.3742 48.4305L42.8027 48.9736C42.8611 49.0578 42.9345 49.1303 43.0192 49.1876C43.2107 49.3004 43.4545 49.2504 43.6653 49.2692C43.8904 49.2886 44.115 49.3145 44.3413 49.3272C44.4352 49.3366 44.5274 49.297 44.5855 49.2223C44.6356 49.1576 44.6819 49.0902 44.7243 49.0202C44.7666 48.95 44.7971 48.8726 44.8413 48.8038C44.8852 48.7348 44.9123 48.6564 44.9204 48.575C44.953 48.3005 44.9796 48.0239 45.036 47.754C45.0844 47.5221 45.1119 47.289 45.1444 47.0553C45.2065 46.6122 45.1799 46.1743 45.2238 45.7334Z" fill="black"/>
<path fill-rule="evenodd" clip-rule="evenodd" d="M42.2495 29.8285C42.3778 28.6264 42.4269 27.4172 42.3964 26.2086C42.2797 25.6074 42.0771 25.0263 41.7949 24.4832C41.4853 23.8415 40.9546 23.334 40.3009 23.0543C39.7312 22.8398 39.1051 22.8706 38.4987 22.9039C38.1371 22.9243 37.7753 22.8984 37.4526 23.0866C37.3553 23.1433 37.2525 23.1905 37.1516 23.2403C37.1247 23.2545 37.0956 23.2641 37.0655 23.2686C37.0458 23.268 37.0274 23.2588 37.0151 23.2433C36.9701 23.1842 36.9876 23.0956 36.9278 23.0392C36.9587 22.895 36.9762 22.7482 36.9799 22.6008C36.9995 22.3565 37.039 22.1143 37.0981 21.8765C37.1671 21.5238 37.1886 21.1693 37.2556 20.8137C37.3203 20.5336 37.3503 20.2467 37.3451 19.9592C37.3386 19.6691 37.2257 19.3915 37.0279 19.1797C36.8916 19.0597 36.7375 18.9618 36.5711 18.8894C36.4534 18.8231 36.3262 18.7752 36.194 18.7476C35.9655 18.7116 35.7156 18.6882 35.4857 18.6659C34.9241 18.6133 34.3579 18.6387 33.8033 18.7412C33.7632 18.7501 33.7244 18.7638 33.6877 18.7821C33.6484 18.7969 33.6207 18.8325 33.6161 18.8743C33.6024 19.0694 33.5624 19.2616 33.4972 19.4459C33.4641 19.5648 33.4572 19.6896 33.4769 19.8114C33.4834 19.8836 33.5139 19.9514 33.5634 20.0041C33.6043 20.05 33.6489 20.0925 33.6966 20.1313C33.741 20.168 33.7911 20.1925 33.8336 20.2309C33.7088 20.5071 33.7318 20.9045 33.7001 21.2066L33.5817 22.2999C33.521 22.861 33.4603 23.4221 33.3996 23.9835C33.346 24.4785 33.3511 25.0286 33.1912 25.5026C33.1041 25.7871 33.0379 26.0777 32.993 26.3719C32.8123 27.3666 32.6536 28.3656 32.4877 29.3639C32.3672 30.0917 32.2944 30.8266 32.2696 31.5639C32.2547 31.6338 32.2528 31.7057 32.2641 31.7762C32.2985 31.8495 32.3045 31.933 32.281 32.0106C32.3447 32.1081 32.3325 32.2339 32.4186 32.3292C32.4352 32.4549 32.4919 32.5718 32.5803 32.6625C32.582 32.6854 32.582 32.7084 32.5803 32.7313C32.5561 33.1281 32.9873 33.4774 33.3302 33.5394C33.6256 33.5764 33.9254 33.5568 34.2135 33.4815C34.5582 33.4104 34.9 33.3269 35.2419 33.2434C35.6529 33.1772 35.9765 32.8562 36.0473 32.4447C36.1527 31.8765 36.2519 31.3071 36.3448 30.7366C36.449 30.0954 36.5451 29.4531 36.6331 28.8095C36.6782 28.4794 36.7211 28.1491 36.7619 27.8185C36.78 27.6726 36.745 27.1008 36.9204 27.0498C37.0183 27.0214 37.1201 27.0055 37.2177 26.9765C37.5545 26.8771 37.7749 26.602 37.9898 26.3419C38.2472 26.0558 38.5242 25.7882 38.819 25.5409C38.8515 25.514 38.8966 25.5082 38.9349 25.526C39.0176 25.5447 39.0783 25.6156 39.0843 25.7003C39.1773 27.6415 38.5532 29.5546 38.529 31.5039C38.5243 31.8714 38.5843 32.4582 38.9661 32.6433C39.298 32.8044 39.7353 32.706 40.0936 32.703C40.3541 32.7165 40.6135 32.6594 40.8444 32.5376C40.9015 32.5013 40.9563 32.4616 41.0087 32.4188C41.3039 32.2269 41.5632 31.9845 41.7748 31.7025C41.948 31.3771 42.0589 31.022 42.1018 30.6556C42.1513 30.3794 42.2005 30.1037 42.2495 29.8285Z" fill="black"/>
<path fill-rule="evenodd" clip-rule="evenodd" d="M52.0106 24.8038C52.0045 24.7522 51.9873 24.7026 51.9602 24.6584C51.9513 24.6416 51.9414 24.6252 51.9307 24.6095C51.9295 24.6005 51.9284 24.5917 51.9268 24.5825C51.9086 24.4718 51.8801 24.3631 51.8416 24.2578C51.8076 24.1487 51.7574 24.0455 51.6926 23.9516C51.6867 23.9438 51.6804 23.9373 51.6743 23.9312C51.6559 23.8646 51.6221 23.8034 51.5756 23.7526C51.5286 23.6982 51.4828 23.6411 51.4311 23.5917C51.2352 23.2524 50.8288 23.0126 50.5047 22.8234C50.2642 22.6841 50.013 22.5643 49.7534 22.4654C49.6738 22.409 49.5864 22.3648 49.494 22.3341C49.4081 22.2926 49.3191 22.2578 49.2278 22.2302C49.0824 22.1532 48.9221 22.1086 48.758 22.0996C48.4999 22.0828 48.2419 22.0734 47.9847 22.0749C47.3769 22.0245 46.7231 22.0457 46.1993 22.3047C46.0747 22.3415 45.9524 22.3859 45.8331 22.4376C45.6573 22.5673 45.4883 22.706 45.3268 22.8532C45.1851 22.977 45.0522 23.1106 44.9292 23.2531C44.7752 23.4368 44.6337 23.6321 44.497 23.8295C44.1815 24.2604 43.9297 24.7348 43.7494 25.2379C43.668 25.4861 43.5825 25.7338 43.5083 25.9844C43.3945 26.3524 43.348 26.738 43.3709 27.1226C43.3637 27.4195 43.3953 27.716 43.4649 28.0046C43.6509 28.7168 43.7944 29.281 44.3257 29.8129L44.7719 30.2597C46.0502 31.5396 47.9692 31.2873 49.5485 30.7449C50.2324 30.51 50.7838 30.1354 50.9835 29.4073C51.009 29.2985 51.0222 29.1872 51.0227 29.0754C51.0429 28.7856 50.995 28.4951 50.8827 28.2273C50.8681 28.1995 50.8575 28.1695 50.842 28.1424C50.8353 28.1307 50.8315 28.1176 50.831 28.1042C50.7527 28.0413 50.6768 27.9752 50.5991 27.9117C50.5855 27.9006 50.5731 27.8881 50.562 27.8744C50.4281 27.8627 50.2947 27.8495 50.161 27.8319C49.8696 27.7995 49.5746 27.8304 49.2962 27.9225C48.9773 28.0203 48.6654 28.1408 48.3491 28.2477C48.1121 28.3279 47.8746 28.4075 47.6347 28.4782C47.3618 28.5561 47.0721 28.5522 46.8014 28.4667C46.5912 28.4007 46.4064 28.2711 46.2724 28.0956C46.2242 28.0362 46.2242 27.951 46.2724 27.8915C46.3605 27.8028 46.4552 27.7209 46.5556 27.6466C46.6679 27.57 46.7857 27.5022 46.9083 27.4437C47.0507 27.337 47.2238 27.2797 47.4015 27.2804C47.4384 27.2859 47.4801 27.2563 47.5204 27.2455C47.5578 27.2293 47.5982 27.2213 47.639 27.2218C47.7536 27.2293 47.8686 27.2161 47.9786 27.183C48.3934 27.1344 48.7995 27.0281 49.1851 26.867C49.2424 26.8418 49.3018 26.8218 49.3627 26.8072C49.7545 26.6989 50.1382 26.5632 50.511 26.401C50.6341 26.3447 50.7615 26.2982 50.8919 26.262C50.9931 26.2379 51.0906 26.1999 51.1814 26.1491C51.3101 26.0799 51.436 26.0062 51.5604 25.9285C51.6757 25.8573 51.7899 25.7836 51.9004 25.705C51.973 25.6597 52.0175 25.5802 52.0182 25.4943C52.0155 25.2641 52.0174 25.0338 52.0106 24.8038ZM49.5231 24.7048C49.1784 24.7803 48.8461 24.9026 48.4965 24.9626C48.2813 25.0098 48.0703 25.0746 47.8657 25.1565C47.6181 25.25 47.361 25.3162 47.0992 25.3541C46.8239 25.3799 46.556 25.4582 46.31 25.5847C46.2312 25.6252 46.145 25.6491 46.0567 25.6552C46.0473 25.6552 46.0302 25.6501 46.0286 25.6437C46.0207 25.6257 46.019 25.6055 46.0237 25.5864C46.0266 25.5813 46.0298 25.5768 46.0327 25.5719C46.026 25.5515 46.0264 25.5294 46.0339 25.5092C46.2181 24.9632 46.7996 24.7003 47.2833 24.4727C47.5725 24.3166 47.8847 24.2077 48.2081 24.1502C48.5276 24.1286 48.8486 24.1533 49.1611 24.2235C49.2398 24.2871 49.3326 24.3307 49.4317 24.3508C49.452 24.3541 49.4708 24.3586 49.4899 24.3637C49.5367 24.4085 49.5905 24.4454 49.649 24.4731C49.6681 24.5275 49.6952 24.5786 49.7294 24.625C49.6641 24.6598 49.5948 24.6866 49.5231 24.7048Z" fill="black"/>
<path fill-rule="evenodd" clip-rule="evenodd" d="M36.6992 43.1962C36.9339 42.9933 37.0102 42.661 36.8876 42.3756C36.8493 42.2604 36.8017 42.1485 36.7452 42.041C36.6857 41.9325 36.6015 41.8396 36.4994 41.77C35.9799 41.4298 35.4014 41.1902 34.794 41.0635C34.1159 40.8748 33.3945 40.9185 32.7441 41.1876C32.6774 41.2141 32.6135 41.2473 32.5534 41.2866C32.3927 41.3958 32.2352 41.5112 32.0769 41.6234C32.027 41.6591 31.9798 41.6987 31.9295 41.7341C31.88 41.7726 31.8139 41.7824 31.7553 41.76C31.5993 41.7123 31.4485 41.649 31.305 41.5712C31.1722 41.4943 31.032 41.4311 30.8865 41.3826C30.6599 41.3175 30.4236 41.293 30.1885 41.3101C30.1783 41.3104 30.1681 41.3116 30.158 41.3136C29.9692 41.3261 29.8037 41.4447 29.7307 41.6198C29.6988 41.6955 29.6554 41.7659 29.6021 41.8284C29.5071 42.0014 29.4515 42.1935 29.4393 42.3907C29.3772 42.6561 29.3237 42.9229 29.2765 43.1911C29.179 43.7438 29.1098 44.3011 29.0549 44.8596C28.8972 46.4619 28.842 47.9926 28.8244 49.6017C28.8176 50.2106 29.0704 50.7223 29.3127 51.2645C29.3614 51.3783 29.4463 51.4728 29.554 51.5333C29.5984 51.5584 29.6377 51.5921 29.6806 51.6203C30.1028 51.8983 30.6539 51.7715 31.0643 51.537C31.5494 51.2602 31.7018 50.7913 31.6866 50.2382C31.6645 49.5803 31.7151 48.922 31.8375 48.2753C31.9084 47.9136 31.9948 47.5552 32.0817 47.197C32.2219 46.6148 32.1808 46.1094 32.5294 45.6117C32.882 45.1346 33.2711 44.6858 33.6933 44.2694C34.0567 43.8924 34.6817 43.4421 35.2473 43.4556C35.5102 43.492 35.7757 43.5057 36.0409 43.4964C36.2216 43.4679 36.3946 43.4032 36.5496 43.306C36.6026 43.2739 36.6527 43.2372 36.6992 43.1962Z" fill="black"/>
<path fill-rule="evenodd" clip-rule="evenodd" d="M72.2964 31.9393V31.9406L72.3008 31.9322V31.9332C72.298 31.9346 72.2962 31.9351 72.2939 31.9361L72.296 31.9399L72.2964 31.9393Z" fill="black"/>
<path fill-rule="evenodd" clip-rule="evenodd" d="M59.3862 39.0313C59.3569 38.9367 59.3207 38.8443 59.2778 38.7551C59.1614 38.4963 59.0627 38.088 58.8737 37.8774C58.6818 37.6788 58.4774 37.493 58.2616 37.3209C58.0056 37.1062 57.7122 36.7888 57.407 36.6547C57.2037 36.5833 56.987 36.5585 56.7729 36.5822C56.1469 36.5769 55.5227 36.6492 54.9145 36.7976C54.8372 36.8245 54.758 36.8456 54.6776 36.8606C54.5256 36.8838 54.3804 36.9399 54.2521 37.025C54.2092 37.053 54.1647 37.0782 54.1186 37.1007C53.8605 37.2299 53.6454 37.4316 53.4996 37.6814C53.4113 37.8194 53.3145 37.9519 53.2231 38.088C53.1328 38.212 53.0489 38.3406 52.9718 38.4732C52.766 38.8523 52.5929 39.2484 52.4543 39.6571C52.4038 39.8351 52.3347 40.0073 52.248 40.1707C52.2324 40.1971 52.223 40.2267 52.2206 40.2572C52.2049 40.39 52.1695 40.5197 52.1157 40.642C51.9087 41.2769 51.7752 41.9336 51.7179 42.5991C51.6365 43.2825 51.5381 43.991 51.8209 44.6444C51.9449 44.9084 52.1022 45.1554 52.2889 45.3792C52.4448 45.5888 52.6228 45.7808 52.8198 45.952C53.0755 46.1472 53.3527 46.3124 53.6459 46.4441C54.6972 46.9281 55.8702 47.0805 57.0097 46.8812C57.455 46.8126 58.0628 46.7179 58.3462 46.3253C58.4696 46.1277 58.5379 45.9005 58.5442 45.6675C58.5601 45.4892 58.6637 44.7838 58.5239 44.6487C58.4805 44.6157 58.4445 44.574 58.4183 44.5262C58.3543 44.4104 58.2793 44.301 58.1944 44.1996C58.1298 44.0944 58.0336 44.0125 57.9195 43.9657C57.8546 43.9362 57.7878 43.9111 57.7195 43.8906C57.5728 43.8467 57.4236 43.8108 57.2775 43.7646C57.0624 43.7002 56.8418 43.6565 56.6184 43.634C56.4149 43.6103 56.2133 43.5821 56.008 43.5764C55.9973 43.5774 55.9869 43.5731 55.9799 43.5651C55.9729 43.557 55.9702 43.546 55.9726 43.5356C55.9726 43.5262 55.9742 43.513 55.9801 43.5085C56.0778 43.4348 56.1765 43.3627 56.2741 43.289C56.6074 43.038 56.9348 42.7887 57.2765 42.5432C57.6011 42.3099 57.869 42.0006 58.2091 41.7904C58.6492 41.5434 59.0313 41.2045 59.3294 40.7965C59.4372 40.6334 59.5052 40.4472 59.5281 40.2529C59.5319 40.0085 59.5083 39.7644 59.4579 39.5252C59.4465 39.359 59.4225 39.1939 59.3862 39.0313ZM57.0773 39.6555C57.0149 39.7234 56.9416 39.7803 56.8604 39.8239C56.6288 39.9551 56.4036 40.098 56.17 40.2254C55.6678 40.5029 55.1998 40.8386 54.7757 41.2256C54.6772 41.3144 54.5667 41.3899 54.4605 41.4705C54.4232 41.4895 54.378 41.4823 54.3484 41.4528C54.3016 41.4116 54.2756 41.3518 54.2774 41.2895C54.2783 41.1862 54.3052 41.0848 54.3555 40.9947C54.4448 40.8543 54.4477 40.681 54.5315 40.5389C54.5324 40.4158 54.5574 40.2941 54.605 40.1807C54.6333 40.1154 54.6638 40.0509 54.6931 39.9859C54.7243 39.9211 54.7775 39.8697 54.8433 39.8408C55.0317 39.7376 55.2125 39.6209 55.3843 39.4918C55.4421 39.4509 55.5052 39.4175 55.5658 39.3805C55.6899 39.3891 55.7978 39.3019 55.926 39.3223C55.9967 39.3339 56.0687 39.3339 56.1394 39.3223C56.384 39.2937 56.6319 39.3164 56.8673 39.3891C56.9586 39.4098 57.0382 39.4653 57.0893 39.5438C57.0973 39.562 57.1026 39.5812 57.105 39.601C57.0981 39.6202 57.0888 39.6385 57.0773 39.6555Z" fill="black"/>
<path fill-rule="evenodd" clip-rule="evenodd" d="M54.1269 46.5286L54.1329 46.5343C54.1313 46.5327 54.1297 46.5306 54.1281 46.5288L54.1269 46.5286Z" fill="black"/>
<path fill-rule="evenodd" clip-rule="evenodd" d="M26.5639 66.2013C26.5613 66.2045 26.5593 66.2066 26.5572 66.2088L26.5586 66.21L26.5572 66.2121L26.5629 66.2137L26.5639 66.2013Z" fill="black"/>
<path fill-rule="evenodd" clip-rule="evenodd" d="M35.6572 61.3333C35.6481 61.1749 35.632 61.017 35.6104 60.8598C35.6369 60.2883 35.4919 59.722 35.1941 59.2342C35.0747 58.9064 34.9269 58.5897 34.7523 58.2878C34.6908 58.135 34.6044 57.9935 34.4968 57.869C34.413 57.7206 34.304 57.5882 34.1747 57.4777C33.7154 56.9047 33.1469 56.4293 32.5024 56.0792C32.3346 55.918 32.1295 55.801 31.9056 55.7388L31.2076 55.4746C31.1745 55.4623 31.1405 55.4522 31.1059 55.4446C30.7729 55.3301 30.432 55.2404 30.0858 55.1762C30.0063 55.162 29.9259 55.1534 29.8451 55.1505C29.4255 55.0484 28.9418 55.1391 28.5239 55.1987C28.0246 55.2697 27.5295 55.3675 27.0407 55.4918C26.7372 55.5632 26.4403 55.6604 26.1533 55.7823C25.8674 55.9096 25.601 56.0754 25.32 56.2125C25.2343 56.2544 24.5099 56.4597 24.5036 56.4857C24.5018 56.4936 24.4994 56.5008 24.4973 56.5081L24.4884 56.5112C24.3994 56.5414 24.3155 56.5849 24.2393 56.64C24.219 56.6482 24.196 56.6604 24.1752 56.6673C24.1479 56.6758 24.1304 56.7025 24.1335 56.731C23.9576 56.9158 23.8792 57.1731 23.9219 57.425C23.9693 57.7335 23.7522 58.2695 23.6903 58.5753C23.6903 59.05 23.4868 59.6073 23.393 60.0754L23.3857 60.086C23.339 60.147 23.3248 60.227 23.3474 60.3005C23.1466 61.2844 23.0002 62.2787 22.9089 63.2788C22.8275 64.1478 22.6647 65.0057 22.5388 65.8687C22.4753 66.3035 22.421 66.7401 22.3921 67.179C22.3394 67.5906 22.3258 68.0063 22.3514 68.4204C22.3717 68.5821 22.4259 68.7378 22.4545 68.8985C22.4687 69.0369 22.4963 69.1737 22.537 69.3067C22.6407 69.5141 22.7986 69.6893 22.9938 69.8138L25.0406 71.3882C25.1566 71.463 25.2924 71.501 25.4303 71.4972C26.5238 71.6208 27.446 71.1248 28.3576 70.577C28.7935 70.3149 29.2276 70.0503 29.6599 69.7834C29.9633 69.6032 30.2569 69.4068 30.5394 69.1953C31.1619 68.7129 31.6616 68.0818 32.3119 67.6356C32.4208 67.5672 32.525 67.4918 32.6239 67.4096C32.8261 67.2282 32.9798 66.9938 33.1743 66.8024C33.3893 66.5908 33.595 66.3699 33.7913 66.1398C34.1849 65.6802 34.5406 65.1892 34.8549 64.6718C35.3515 63.8385 35.6294 62.8926 35.6627 61.9224C35.6703 61.7261 35.6685 61.5297 35.6572 61.3333ZM31.6134 61.8583C31.0029 63.2623 29.9814 64.4243 28.8332 65.4129C28.5899 65.6302 28.3334 65.8321 28.065 66.0173C27.8 66.1911 27.5465 66.382 27.3062 66.5888C27.1231 66.7491 26.9237 66.893 26.7289 67.0406C26.6882 67.0727 26.6361 67.0867 26.5848 67.0793C26.5335 67.0719 26.4874 67.0439 26.4573 67.0016C26.4369 66.9779 26.4201 66.952 26.4025 66.9265C26.4187 66.7482 26.4493 66.5715 26.4941 66.3982C26.5875 65.9418 26.579 65.4362 26.6268 64.9693C26.6778 64.4694 26.7293 63.9695 26.7812 63.4697L26.9013 62.3101L26.9452 61.8857C26.9888 61.4638 27.0324 61.042 27.0761 60.6201C27.1021 60.3691 27.0964 59.615 27.3321 59.4591C27.3484 59.4474 27.369 59.4433 27.3885 59.448C27.408 59.4527 27.4246 59.4657 27.4338 59.4836C27.4338 59.3815 27.537 59.3133 27.6298 59.2719C28.0937 59.0643 28.6024 59.0725 29.0985 59.027C29.638 58.9508 30.1876 58.9956 30.7077 59.1584L30.7174 59.1621C31.2426 59.3441 31.6688 59.7368 31.894 60.2464C32.105 60.7961 31.8331 61.3533 31.6134 61.8583Z" fill="black"/>
<path fill-rule="evenodd" clip-rule="evenodd" d="M35.4732 63.2728L35.4819 63.2677L35.4734 63.2722L35.4732 63.2728Z" fill="black"/>
<path fill-rule="evenodd" clip-rule="evenodd" d="M46.1268 72.9029C46.1248 72.9003 46.1226 72.8987 46.1205 72.8964H46.1187L46.123 72.9003L46.1187 72.8964C46.1187 72.9005 46.1211 72.9044 46.1224 72.9085L46.1274 72.9044L46.1268 72.9029Z" fill="black"/>
<path fill-rule="evenodd" clip-rule="evenodd" d="M46.0871 72.9391C46.0834 72.943 46.0871 72.9595 46.0922 72.9638C46.1101 72.9793 46.1282 72.9734 46.1312 72.9485C46.1312 72.9344 46.1282 72.9205 46.1225 72.9077C46.1099 72.9173 46.0981 72.9278 46.0871 72.9391Z" fill="black"/>
<path fill-rule="evenodd" clip-rule="evenodd" d="M44.413 62.9423C44.6561 62.4204 44.6571 61.8564 44.696 61.2963C44.7389 60.8884 44.721 60.4764 44.6429 60.0738C44.6056 59.9095 44.5531 59.7491 44.486 59.5947C43.9351 58.4881 43.09 57.5556 42.0442 56.9003C41.7778 56.7383 41.4822 56.6305 41.1743 56.5829C40.8284 56.549 40.5638 56.7296 40.2623 56.8686C39.9045 57.0025 39.5541 57.1554 39.2125 57.3265C38.6845 57.6658 38.2467 58.1288 37.9367 58.6755C37.1732 59.8798 36.4356 61.203 36.4815 62.6294C36.4992 62.9619 36.54 63.2927 36.6036 63.6196C36.6663 63.9805 36.7367 64.5585 36.9367 64.8647C37.1199 65.1042 37.2893 65.3541 37.444 65.613C37.6587 66.0464 37.9739 66.4217 38.3632 66.7075C38.4332 66.7649 38.4993 66.83 38.5666 66.8886C38.6433 66.9388 38.7269 66.9777 38.8147 67.0039C39.1776 67.1741 39.5665 67.2822 39.965 67.3236C40.3387 67.3655 40.717 67.3244 41.0732 67.2033C41.1098 67.1864 41.1411 67.1564 41.1788 67.1435C41.2778 67.1202 41.3749 67.089 41.4689 67.05C41.5491 66.9886 41.6355 66.9357 41.7265 66.8922C41.8018 66.8615 41.8717 66.8191 41.9337 66.7665C42.0178 66.7085 42.0983 66.6455 42.1748 66.5779C42.4782 66.315 42.688 65.881 42.9147 65.5514L43.7297 64.3658C43.8593 64.1772 43.9158 63.8719 44.0282 63.661L44.413 62.9423ZM41.7347 61.7074C41.6574 61.9215 41.5516 62.1248 41.4553 62.3312C41.3863 62.4852 41.3097 62.6357 41.2258 62.7821C41.1423 62.9198 41.049 63.0514 40.9468 63.1758C40.9157 63.2144 40.8839 63.2526 40.852 63.2903C40.7535 63.4063 40.6202 63.513 40.5343 63.6361C40.5085 63.6728 40.4896 63.7141 40.4641 63.751C40.3964 63.8494 40.2893 63.9125 40.2226 64.0115C40.1453 64.1264 40.0859 64.2599 40.0132 64.3789C39.9863 64.4221 39.956 64.4631 39.9225 64.5014C39.9038 64.519 39.8784 64.5274 39.8529 64.5245C39.8275 64.5216 39.8046 64.5076 39.7904 64.4863C39.6085 64.1119 39.5428 63.6914 39.6018 63.2791C39.6714 62.8929 39.7407 62.5065 39.8299 62.1244C39.8969 61.7544 40.0367 61.4016 40.2413 61.0866C40.4326 60.8227 40.7008 60.6261 40.8906 60.3616C40.9617 60.2303 41.0519 60.1103 41.1582 60.0056C41.2878 59.9035 41.4567 59.8705 41.5904 59.7751C41.6179 59.7584 41.6486 59.7476 41.6806 59.7435C41.908 59.698 42.221 59.6178 42.2066 59.9476C42.2051 59.9784 42.198 60.0089 42.1995 60.0395C42.2292 60.611 41.9241 61.1834 41.7347 61.7074Z" fill="black"/>
<path fill-rule="evenodd" clip-rule="evenodd" d="M53.7964 60.4593L53.7907 60.4483H53.7895H53.7862H53.7832L53.7759 60.4518L53.7962 60.4577L53.7964 60.4593Z" fill="black"/>
<path fill-rule="evenodd" clip-rule="evenodd" d="M35.6395 62.1581L35.6334 62.1658L35.6411 62.1616L35.6395 62.1581Z" fill="black"/>
<path fill-rule="evenodd" clip-rule="evenodd" d="M35.6392 62.158C35.6424 62.1537 35.6455 62.1498 35.6449 62.1494C35.6316 62.136 35.63 62.1394 35.6392 62.158Z" fill="black"/>
<path fill-rule="evenodd" clip-rule="evenodd" d="M35.4927 63.2835L35.4791 63.2762L35.4751 63.2887L35.4927 63.2835Z" fill="black"/>
<path fill-rule="evenodd" clip-rule="evenodd" d="M78.0417 34.3277H78.0472V34.2516H78.0419C78.0419 34.2777 78.0417 34.3026 78.0417 34.3277Z" fill="black"/>
<path fill-rule="evenodd" clip-rule="evenodd" d="M27.4534 51.1011C27.2626 50.945 27.0756 50.7839 26.8989 50.6113C26.7726 50.4888 26.5048 50.2937 26.438 50.1344C26.3957 50.0116 26.3389 49.8943 26.269 49.785C26.2611 49.7737 26.2543 49.7619 26.2486 49.7495C26.4677 48.0785 26.4159 46.3212 26.7516 44.6742C26.8127 44.3739 26.8621 44.0933 26.894 43.7895C26.9136 43.6512 26.9427 43.5144 26.9811 43.3801C26.97 43.3435 26.9573 43.3073 26.9429 43.2717C26.7473 42.784 26.3306 42.5777 25.9173 42.2819C25.768 42.1751 25.6121 42.0965 25.4627 41.9867C25.3254 41.8846 25.1611 41.8254 24.9905 41.8165C24.9656 41.8112 24.9396 41.8164 24.9187 41.8308C24.8977 41.8452 24.8836 41.8676 24.8795 41.8928C24.8279 42.0561 24.7798 42.2194 24.7231 42.3799C24.6787 42.5052 24.6354 42.5227 24.5214 42.4644C24.1204 42.2586 23.7874 41.9336 23.3162 41.8949C23.1498 41.8866 22.9831 41.9009 22.8205 41.9373C22.4074 42.0137 22.0035 42.1337 21.6156 42.2956C21.3306 42.4449 21.0883 42.6647 20.9116 42.9343C19.6301 44.6265 18.7298 46.5774 18.2728 48.6525C18.2194 48.8879 18.1813 49.1266 18.1587 49.3669C18.1388 49.7086 18.1548 50.0513 18.2065 50.3896C18.2236 50.5801 18.2659 50.7675 18.3322 50.9468C18.3774 51.0693 18.4114 51.1956 18.434 51.3243C18.6224 52.1816 19.0866 52.9609 19.9833 53.2263C20.4833 53.374 21.0184 53.2636 21.5276 53.1524C21.957 53.0822 22.3719 52.9414 22.7556 52.7355C23.0751 52.5105 23.3465 52.2236 23.5539 51.8917C23.5647 51.8751 23.5791 51.8612 23.596 51.8509C23.6636 51.8281 23.7126 51.7688 23.7223 51.6978C23.7236 51.6849 23.7502 51.6684 23.7677 51.6643C23.8337 51.638 23.9072 51.638 23.9732 51.6643C24.0543 51.7039 24.143 51.7253 24.2331 51.727C24.5255 51.7556 24.7432 51.9409 25.009 52.0266C25.2747 52.1124 25.5555 52.1405 25.8266 52.2104C26.0811 52.2753 26.3121 52.4063 26.5674 52.4732C26.7168 52.4839 26.8668 52.4677 27.0104 52.4255C27.0507 52.4211 27.088 52.4018 27.1148 52.3714C27.1662 52.3098 27.2277 52.2575 27.2965 52.2165C27.3215 52.1996 27.3421 52.177 27.3566 52.1505C27.4599 51.9351 27.5382 51.7085 27.59 51.4751C27.5946 51.4555 27.5969 51.4354 27.5969 51.4153C27.6048 51.293 27.5509 51.175 27.4534 51.1011ZM24.0314 45.0769C23.8412 45.8103 23.7059 46.5562 23.5634 47.3002C23.4322 47.9895 23.1768 48.7225 23.2037 49.4286C23.2108 49.5307 23.1658 49.6296 23.0842 49.6911C22.6748 50.0647 22.1923 50.3487 21.6674 50.5247C21.4687 50.58 21.0545 50.8054 20.8876 50.6015C20.8616 50.5673 20.8431 50.5281 20.8333 50.4863C20.6884 49.9589 21.1122 49.2669 21.2968 48.795C21.2968 48.5882 21.5052 48.2624 21.5817 48.0673C21.6853 47.8025 21.7888 47.5377 21.8922 47.2731C22.0827 46.7848 22.2625 46.2933 22.4784 45.8146C22.6343 45.4696 22.91 44.8883 23.3573 44.863C23.5513 44.79 23.7555 44.7479 23.9624 44.7381C23.9922 44.7415 24.0168 44.7381 24.0308 44.7477C24.0528 44.7638 24.0847 44.792 24.0825 44.8114C24.0713 44.9009 24.0542 44.9896 24.0314 45.0769Z" fill="black"/>
<path fill-rule="evenodd" clip-rule="evenodd" d="M48.5564 66.2908L48.5755 66.281C48.5755 66.281 48.5694 66.2757 48.5694 66.2766C48.5694 66.2774 48.5564 66.2908 48.5564 66.2908Z" fill="black"/>
<path fill-rule="evenodd" clip-rule="evenodd" d="M48.4448 66.4757L48.4489 66.4874C48.4619 66.4764 48.4601 66.4727 48.4448 66.4757Z" fill="black"/>
<path fill-rule="evenodd" clip-rule="evenodd" d="M78.0264 33.8392C78.0186 33.7232 77.9937 33.6089 77.9525 33.5002C77.9004 33.3874 77.8346 33.2815 77.7564 33.185C77.4322 32.7492 77.0794 32.3381 76.756 31.9025C76.7044 31.8244 76.6217 31.7724 76.5292 31.7596C75.8314 31.6806 75.0779 32.0046 74.4502 32.2799C74.1996 32.3787 73.9661 32.5165 73.7583 32.6882C73.4812 32.9358 73.3283 33.275 73.1275 33.5763C72.9005 33.9197 72.6952 34.2771 72.513 34.6463C72.2717 35.1274 72.257 35.8286 72.2332 36.3599C72.2185 36.69 72.2043 37.283 72.4397 37.5467C72.443 37.5504 72.4464 37.5536 72.4497 37.5571C72.4715 37.6099 72.4968 37.6612 72.5256 37.7106C72.5794 37.803 72.6482 37.8858 72.7291 37.9555C73.1029 38.6075 73.6802 39.0219 74.2687 39.4809C74.5314 39.6851 74.4835 39.7647 74.2713 39.9767C74.0806 40.1566 73.854 40.2937 73.6065 40.3791C73.2809 40.5015 72.9383 40.566 72.608 40.672C72.2589 40.7845 71.9259 40.9423 71.6174 41.1415C71.2919 41.3505 71.0353 41.6236 70.6643 41.7538C70.6433 41.7469 70.6218 41.7413 70.6 41.7371C70.56 41.7235 70.5158 41.7314 70.4828 41.758C70.4499 41.7846 70.4327 41.8262 70.4373 41.8683C70.4651 42.3388 70.3327 43.7509 70.9724 43.8669C71.9003 44.0353 72.9442 44.0655 73.8438 43.7691C74.6697 43.5311 75.421 43.0846 76.0257 42.4721C76.5627 41.8994 77.1054 41.0831 77.2821 40.3056C77.3472 40.0489 77.333 39.7783 77.2414 39.5299C77.226 39.4726 77.2069 39.4165 77.1842 39.3617L77.1813 39.3534C77.1705 39.3219 77.1558 39.2919 77.1374 39.2642C77.1178 39.227 77.0966 39.1909 77.0737 39.156C76.9752 38.9231 76.8524 38.7014 76.7074 38.4944L75.9531 37.3448C75.8139 37.1259 75.6607 36.9163 75.4945 36.7173C75.2545 36.4385 75.291 36.2781 75.3986 35.9551C75.4476 35.7227 75.6095 35.5303 75.8298 35.4428C76.3857 35.224 77.0257 35.226 77.5576 34.9643C78.0024 34.7457 78.0712 34.3928 78.0345 33.9217C78.0315 33.8954 78.0292 33.8672 78.0264 33.8392Z" fill="black"/>
<path fill-rule="evenodd" clip-rule="evenodd" d="M47.7319 67.3708V67.4082C47.7355 67.3993 47.7381 67.3901 47.7398 67.3806C47.7402 67.3778 47.7374 67.3743 47.7319 67.3708Z" fill="black"/>
<path fill-rule="evenodd" clip-rule="evenodd" d="M47.7321 67.4309V67.4082C47.7299 67.4147 47.7272 67.4213 47.725 67.4286L47.7321 67.4309Z" fill="black"/>
<path fill-rule="evenodd" clip-rule="evenodd" d="M47.7213 67.3625C47.7241 67.3651 47.7282 67.368 47.7319 67.3708V67.3586L47.7213 67.3625Z" fill="black"/>
<path fill-rule="evenodd" clip-rule="evenodd" d="M70.5949 35.6159C70.7745 35.465 70.9184 35.2758 71.0161 35.0621C71.2664 34.5143 71.3793 33.9234 71.6722 33.3926C72.0014 32.8514 72.2362 32.2577 72.3664 31.6372C72.4522 30.9791 72.263 30.3146 71.8435 29.8013C71.5732 29.4355 70.6655 28.7099 70.2138 29.189C70.0334 29.4229 69.8979 29.6884 69.8141 29.972C69.5354 30.6961 69.2787 31.428 69.0441 32.1679C68.9269 32.538 68.8234 32.9117 68.7096 33.2826C68.627 33.5523 68.4943 33.895 68.5969 34.1761C68.6134 34.2214 68.6402 34.262 68.6598 34.3061C68.6796 34.3551 68.6949 34.4059 68.7053 34.4577L68.8478 35.0617C68.9536 35.4812 69.2923 35.8011 69.716 35.8819C70.0337 35.9269 70.355 35.8296 70.5949 35.6159V35.6159Z" fill="black"/>
<path fill-rule="evenodd" clip-rule="evenodd" d="M47.0329 68.2919C47.0329 68.2919 47.0417 68.2933 47.0431 68.2939C47.0445 68.2946 47.0388 68.2882 47.0388 68.2882L47.0329 68.2919Z" fill="black"/>
<path fill-rule="evenodd" clip-rule="evenodd" d="M54.1237 46.555L54.1263 46.5365C54.1046 46.5424 54.1029 46.5485 54.1237 46.555Z" fill="black"/>
<path fill-rule="evenodd" clip-rule="evenodd" d="M54.127 46.5287L54.1258 46.5364C54.1284 46.5364 54.13 46.535 54.1331 46.5344L54.127 46.5287Z" fill="black"/>
<path fill-rule="evenodd" clip-rule="evenodd" d="M67.9085 36.4694C67.5885 36.1985 67.3028 35.8095 66.9243 35.6219C66.5597 35.4799 66.1752 35.3961 65.7848 35.3735C65.7142 35.364 65.6425 35.3669 65.573 35.3823C65.473 35.4027 65.3707 35.4143 65.2714 35.4386C65.1108 35.4702 64.953 35.5143 64.7993 35.5707C64.5643 35.6701 64.3392 35.7932 64.1107 35.9077C64.0745 35.9258 64.044 35.9563 64.0069 35.9726C63.822 36.0542 63.6903 36.1657 63.5719 35.9618C63.5209 35.8277 63.4516 35.7015 63.366 35.5866C63.202 35.4397 63.0204 35.314 62.8253 35.2122C62.787 35.1854 62.7441 35.1657 62.6987 35.1543C62.639 35.1478 62.5786 35.1567 62.5231 35.18C62.2493 35.2728 61.9929 35.4108 61.7643 35.5882C61.7041 35.6298 61.6534 35.6836 61.6154 35.7462C61.5878 35.8065 61.5709 35.8712 61.5653 35.9373C61.4451 36.7791 61.289 37.6092 61.2277 38.46C61.1142 40.0383 60.9734 41.6196 60.9146 43.1979C60.8995 43.4948 60.9027 43.7925 60.9241 44.0891C60.9587 44.4051 61.0427 44.7137 61.1728 45.0035C61.2292 45.1464 61.3 45.2832 61.384 45.4117C61.4452 45.508 61.542 45.576 61.653 45.6008C61.7637 45.6233 61.878 45.6205 61.9873 45.5924C62.126 45.5603 62.2665 45.5373 62.4081 45.5234C62.6414 45.4922 62.866 45.4143 63.0686 45.2944C63.1798 45.2256 63.2518 45.1009 63.3942 45.0727C63.4193 45.0678 63.4423 45.0348 63.4592 45.0099C63.8507 44.4338 63.757 43.69 63.7225 43.0299C63.6798 42.2145 63.7083 41.3971 63.8077 40.5867C63.8148 40.4869 63.8368 40.3886 63.8728 40.2953C64.0845 39.8258 64.5673 39.4022 64.9716 39.1024C65.2242 38.9149 65.4958 38.7548 65.7819 38.6245C66.0336 38.51 66.3781 38.3228 66.6549 38.4086C66.7835 38.4407 66.9093 38.4832 67.0311 38.5355C67.1336 38.5825 67.2481 38.5962 67.3587 38.5747C67.4297 38.562 67.4999 38.5452 67.5689 38.5245C67.6658 38.5006 67.9399 38.103 68.0103 38.0056C68.1566 37.7667 68.2449 37.4967 68.2681 37.2173C68.2845 37.1256 68.2736 37.0311 68.2366 36.9456C68.1655 36.7636 68.0532 36.6005 67.9085 36.4694Z" fill="black"/>
<path fill-rule="evenodd" clip-rule="evenodd" d="M27.3427 59.6759L27.3634 59.6792L27.3567 59.6523L27.3427 59.6759Z" fill="black"/>
<path fill-rule="evenodd" clip-rule="evenodd" d="M18.0714 25.1338C18.2342 25.3557 18.2055 25.6517 18.2493 25.9111C18.2911 26.2083 18.3959 26.493 18.5565 26.7462C18.9083 27.2724 19.5332 27.6837 20.1844 27.6106C20.4668 27.5681 20.7433 27.4927 21.0083 27.3861L22.7412 26.7631C23.0716 26.6443 23.6215 26.3063 23.4981 26.884C23.4424 27.1448 23.3873 27.406 23.3329 27.6674C23.2199 28.2061 23.1088 28.7453 22.9996 29.2848C22.7286 30.6953 22.5031 32.1193 22.0312 33.475C21.929 33.7165 21.9021 33.9834 21.9541 34.2405C22.0729 34.6691 22.5469 34.9633 22.8452 35.2652C22.9206 35.3496 23.0083 35.422 23.1054 35.4799C23.1921 35.5218 23.2848 35.5501 23.3801 35.5638C23.8923 35.6555 24.4197 35.572 24.9331 35.5365C25.1904 35.4895 25.4448 35.4275 25.695 35.3509C26.0079 35.2978 26.1078 35.01 26.1833 34.742C26.2169 34.526 26.2759 34.3148 26.3591 34.1127L26.5626 33.3865C26.6253 33.1619 26.7051 32.9374 26.7519 32.7084C26.7952 32.4995 26.7803 32.2848 26.8245 32.0742C26.829 32.0436 26.8296 32.0126 26.8265 31.9819C26.8238 31.869 26.8348 31.7561 26.8593 31.6459C26.9232 31.322 26.924 30.9786 26.9783 30.6494L27.1747 29.4583C27.2836 28.9677 27.3651 28.4714 27.4189 27.9717C27.5025 27.4649 27.5544 26.9864 27.5943 26.4794C27.6395 26.2861 27.6547 26.087 27.6394 25.8891C27.6043 25.7237 27.3763 25.4118 27.4891 25.2532C27.5485 25.1698 27.8619 25.0967 27.9612 25.0644C28.418 24.9162 28.8732 24.8046 29.3434 24.6999L29.7138 24.6182C29.913 24.5739 30.1124 24.5294 30.3108 24.481C30.6627 24.3972 31.0098 24.294 31.3504 24.1718C31.6695 24.055 31.9582 23.8732 32.3082 23.8918C32.4383 23.9001 32.5519 23.8045 32.5664 23.6746C32.5829 23.6155 32.5888 23.5539 32.5837 23.4927C32.5057 23.134 32.382 22.787 32.2156 22.46C32.1629 22.3244 32.1006 22.1928 32.0292 22.0661C31.6713 21.4656 30.9241 21.1247 30.2607 21.0047C29.6096 20.8863 28.8913 21.0583 28.2532 21.1859C25.7709 21.6879 23.3202 22.3361 20.9139 23.1271C19.9168 23.4537 18.7315 23.7821 17.9267 24.4882C17.8865 24.5197 17.8531 24.5592 17.8287 24.6041C17.7931 24.7034 17.8106 24.814 17.8753 24.8972C17.931 24.9811 18.0104 25.0504 18.0714 25.1338Z" fill="black"/>
<path fill-rule="evenodd" clip-rule="evenodd" d="M48.4465 66.4715L48.4415 66.4674L48.4353 66.4778C48.4381 66.477 48.441 66.4764 48.4439 66.476V66.4733L48.4465 66.4715Z" fill="black"/>
<path fill-rule="evenodd" clip-rule="evenodd" d="M52.3825 66.2661H52.3773L52.3807 66.2692V66.2674L52.3825 66.2661Z" fill="black"/>
<path fill-rule="evenodd" clip-rule="evenodd" d="M53.645 58.4603C53.5342 57.9168 53.3619 57.3878 53.1314 56.8835C52.9418 56.4549 52.7348 55.9533 52.3378 55.6757C52.2952 55.6431 52.2507 55.6131 52.2045 55.5859C52.1874 55.5607 52.1687 55.5365 52.1486 55.5136C51.9723 55.3118 51.763 55.1416 51.5296 55.0105C51.4787 54.957 51.4239 54.9073 51.3658 54.8619C51.3373 54.8406 51.3058 54.8236 51.2724 54.8115C51.2618 54.8017 51.252 54.7911 51.2412 54.7813C50.9822 54.7171 50.7269 54.6386 50.4765 54.5459C50.4288 54.5586 50.3824 54.5756 50.3378 54.5967C50.2993 54.6042 50.2603 54.6085 50.2212 54.6098C49.9863 54.6146 49.7558 54.6748 49.5485 54.7855C49.4852 54.8192 49.4223 54.8537 49.3592 54.8876C49.0613 55.047 48.6279 55.2095 48.3452 55.3952C47.9014 55.6914 47.4997 56.0466 47.151 56.451C46.9692 56.6461 46.8047 56.8567 46.6594 57.0805C46.5314 57.2909 46.4217 57.5104 46.3063 57.7269C45.8972 58.4801 45.7052 59.3328 45.752 60.1893C45.7763 61.4127 45.8585 62.7052 46.5379 63.764C46.66 64.005 46.8173 64.2264 47.0047 64.4207C47.1104 64.4798 47.2222 64.5273 47.3382 64.5621C47.4634 64.6166 47.5875 64.6741 47.7106 64.7346C47.9141 64.8338 48.2541 64.9332 48.4572 65.0324C48.6168 65.1352 48.7829 65.2274 48.9545 65.3086C48.9792 65.3268 48.993 65.3563 48.9909 65.387C48.9762 65.5178 48.9419 65.6457 48.8892 65.7663C48.3283 66.781 47.6188 67.7056 46.7845 68.5092C46.3442 68.9316 45.9225 69.3629 45.505 69.8079C45.4863 69.8306 45.4714 69.8562 45.461 69.8838C45.3995 70.0209 45.3251 70.1518 45.2391 70.2749C45.2064 70.3115 45.1865 70.3578 45.1823 70.4068C45.1823 70.4333 45.1937 70.4588 45.1943 70.4853C45.1924 70.5146 45.185 70.5433 45.1725 70.5699C45.027 70.9542 45.2517 71.2806 45.2897 71.6641C45.3121 71.8917 45.3524 71.8379 45.3821 72.0638C45.3912 72.1703 45.4199 72.2741 45.467 72.37C45.6071 72.6287 45.8482 72.8173 46.1326 72.8905C46.2864 72.9255 46.442 72.9522 46.5987 72.9703C46.7938 72.964 46.9777 72.8776 47.1075 72.7315C47.4157 72.3908 47.7582 72.083 48.1296 71.8129C48.4577 71.5971 48.7695 71.3571 49.0623 71.095C49.3281 70.8407 49.5446 70.5223 49.788 70.2424L50.2928 69.6619L51.1285 68.7005C51.2362 68.581 51.3375 68.4557 51.4319 68.3253C51.5596 68.1329 51.6703 67.9297 51.7626 67.7178C52.2051 66.7507 52.5476 65.7405 52.7847 64.7032C52.8479 64.4327 52.8958 64.159 52.9562 63.8879C53.0579 63.4342 53.1932 62.9898 53.3009 62.5371C53.4061 62.0949 53.4325 61.6481 53.5272 61.2043C53.5835 60.939 53.6578 60.6787 53.7012 60.4113C53.7099 60.3583 53.7168 60.3052 53.7225 60.2523C53.7841 59.6544 53.758 59.0507 53.645 58.4603ZM45.5599 69.8969C45.5396 69.9022 45.528 69.8881 45.5335 69.862C45.5388 69.8544 45.5477 69.8502 45.5569 69.8509C45.5636 69.853 45.5675 69.8652 45.5728 69.873C45.5685 69.8813 45.5658 69.8954 45.5599 69.8969ZM50.914 59.0613C50.8473 59.5167 50.7618 59.9692 50.6699 60.4201C50.6576 60.4799 50.654 60.5426 50.6462 60.6024C50.6086 60.8966 50.5575 61.1888 50.5016 61.4801C50.465 61.6818 50.4067 61.8788 50.3276 62.0678C50.3103 62.1044 50.2792 62.1325 50.2411 62.146C50.1623 62.1663 50.0815 62.178 50.0002 62.1809C49.7764 62.1896 49.5505 62.1921 49.3256 62.1972V62.2013C49.1321 62.2052 48.939 62.2105 48.7449 62.2119C48.6635 62.2119 48.5821 62.2035 48.5007 62.2011C48.3939 62.2038 48.3007 62.1288 48.2801 62.0237C48.2634 61.9647 48.2508 61.9045 48.2364 61.8447C48.1131 61.3301 47.9977 60.9514 48.1519 60.4268C48.23 60.1276 48.3358 59.8363 48.4679 59.5569C48.8749 58.763 49.6062 58.3644 50.4476 58.2048C50.5174 58.1903 50.5881 58.1812 50.6593 58.1776C50.742 58.1684 50.8245 58.1972 50.8837 58.2558C50.9429 58.3145 50.9726 58.3968 50.9645 58.4799C50.9584 58.6745 50.9415 58.8686 50.914 59.0613Z" fill="black"/>
<path fill-rule="evenodd" clip-rule="evenodd" d="M39.7687 62.4166L39.7746 62.408L39.7567 62.3982L39.7687 62.4166Z" fill="black"/>
</g>
</svg>
